<svg xmlns="http://www.w3.org/2000/svg" viewBox="0 0 192 192" width="192" height="192">
  <!-- Fond teal inspiré du logo NΞXBΞT -->
  <rect width="192" height="192" rx="36" fill="#10d9a3"/>

  <!-- Hexagone blanc principal -->
  <polygon points="96,30 156,64 156,128 96,162 36,128 36,64" fill="none" stroke="#ffffff" stroke-width="8" stroke-linejoin="round"/>

  <!-- Motif chevron blanc intérieur -->
  <g fill="#ffffff" stroke="none">
    <path d="M 69 75 L 82 75 L 82 84 L 89 84 L 89 92 L 82 92 L 82 100 L 89 100 L 89 108 L 82 108 L 82 117 L 69 117 Z"/>
    <path d="M 123 75 L 110 75 L 110 84 L 103 84 L 103 92 L 110 92 L 110 100 L 103 100 L 103 108 L 110 108 L 110 117 L 123 117 Z"/>
  </g>
</svg>
