<svg xmlns="http://www.w3.org/2000/svg" viewBox="0 0 1200 630" width="1200" height="630">
  <defs>
    <linearGradient id="bg" x1="0" y1="0" x2="1" y2="1">
      <stop offset="0%" stop-color="#091110"/>
      <stop offset="100%" stop-color="#162622"/>
    </linearGradient>
    <linearGradient id="accent" x1="0" y1="0" x2="1" y2="0">
      <stop offset="0%" stop-color="#10d9a3"/>
      <stop offset="100%" stop-color="#0e7490"/>
    </linearGradient>
    <linearGradient id="green" x1="0" y1="0" x2="0" y2="1">
      <stop offset="0%" stop-color="#10d9a3" stop-opacity="0.15"/>
      <stop offset="100%" stop-color="#10d9a3" stop-opacity="0"/>
    </linearGradient>
  </defs>
  <rect width="1200" height="630" fill="url(#bg)"/>

  <!-- Decorative chart curve background -->
  <path d="M 50 480 Q 250 460 380 400 T 700 280 T 1000 180 T 1150 130" stroke="url(#accent)" stroke-width="4" fill="none" opacity="0.4"/>
  <path d="M 50 480 Q 250 460 380 400 T 700 280 T 1000 180 T 1150 130 L 1150 600 L 50 600 Z" fill="url(#green)"/>

  <!-- Logo : hexagone vert avec chevrons (mini version du logo) -->
  <g transform="translate(80, 100)">
    <rect width="100" height="100" rx="22" fill="#10d9a3"/>
    <polygon points="50,18 80,36 80,72 50,90 20,72 20,36" fill="none" stroke="#ffffff" stroke-width="5" stroke-linejoin="round"/>
    <g fill="#ffffff" stroke="none">
      <path d="M 36 42 L 43 42 L 43 47 L 47 47 L 47 51 L 43 51 L 43 57 L 47 57 L 47 61 L 43 61 L 43 66 L 36 66 Z"/>
      <path d="M 64 42 L 57 42 L 57 47 L 53 47 L 53 51 L 57 51 L 57 57 L 53 57 L 53 61 L 57 61 L 57 66 L 64 66 Z"/>
    </g>
  </g>
  <text x="200" y="167" font-family="Inter, system-ui, sans-serif" font-size="56" font-weight="900" fill="url(#accent)" letter-spacing="-2">NΞXBΞT</text>

  <!-- Title -->
  <text x="80" y="290" font-family="Inter, system-ui, sans-serif" font-size="78" font-weight="900" fill="#ffffff" letter-spacing="-3">Trust the Algorithm</text>
  <text x="80" y="350" font-family="Inter, system-ui, sans-serif" font-size="36" font-weight="600" fill="url(#accent)" letter-spacing="-1">L'IA qui prédit · tu gagnes</text>

  <!-- Sub -->
  <text x="80" y="420" font-family="Inter, system-ui, sans-serif" font-size="24" font-weight="400" fill="#ffffff" fill-opacity="0.65">30+ matchs analysés · 1 value bet/jour · cote ≥ 2.00</text>
  <text x="80" y="455" font-family="Inter, system-ui, sans-serif" font-size="24" font-weight="400" fill="#ffffff" fill-opacity="0.65">Tracking ROI 100% transparent · historique vérifiable</text>

  <!-- Stats badges -->
  <g transform="translate(80, 510)">
    <rect width="180" height="70" rx="14" fill="#10d9a3" fill-opacity="0.12" stroke="#10d9a3" stroke-opacity="0.3" stroke-width="2"/>
    <text x="90" y="30" font-family="Inter, system-ui, sans-serif" font-size="13" font-weight="700" text-anchor="middle" fill="#10d9a3" letter-spacing="2">RÉUSSITE</text>
    <text x="90" y="58" font-family="Inter, system-ui, sans-serif" font-size="28" font-weight="800" text-anchor="middle" fill="#10d9a3">100%</text>
  </g>
  <g transform="translate(280, 510)">
    <rect width="180" height="70" rx="14" fill="#10d9a3" fill-opacity="0.12" stroke="#10d9a3" stroke-opacity="0.3" stroke-width="2"/>
    <text x="90" y="30" font-family="Inter, system-ui, sans-serif" font-size="13" font-weight="700" text-anchor="middle" fill="#10d9a3" letter-spacing="2">ROI</text>
    <text x="90" y="58" font-family="Inter, system-ui, sans-serif" font-size="28" font-weight="800" text-anchor="middle" fill="#10d9a3">+400%</text>
  </g>
  <g transform="translate(480, 510)">
    <rect width="180" height="70" rx="14" fill="#0e7490" fill-opacity="0.15" stroke="#0e7490" stroke-opacity="0.35" stroke-width="2"/>
    <text x="90" y="30" font-family="Inter, system-ui, sans-serif" font-size="13" font-weight="700" text-anchor="middle" fill="#22d3ee" letter-spacing="2">PROGRESSION</text>
    <text x="90" y="58" font-family="Inter, system-ui, sans-serif" font-size="28" font-weight="800" text-anchor="middle" fill="#22d3ee">×5</text>
  </g>

  <!-- Right side accent -->
  <text x="1120" y="600" font-family="Inter, system-ui, sans-serif" font-size="16" font-weight="600" text-anchor="end" fill="#ffffff" fill-opacity="0.3" letter-spacing="2">cronobots.github.io/PRONOSTICS</text>
</svg>
